<svg width="136" height="136" viewBox="0 0 136 136" fill="none" xmlns="http://www.w3.org/2000/svg">
<path d="M109.763 67C109.763 67 109.943 67.5444 110.233 67.7121C110.459 67.8425 111.085 67.7632 111.085 67.7632C111.085 67.7632 110.503 68.0075 110.373 68.2334C110.205 68.5237 110.322 69.0851 110.322 69.0851C110.322 69.0851 110.142 68.5407 109.852 68.373C109.626 68.2426 109 68.3219 109 68.3219C109 68.3219 109.558 68.1178 109.712 67.8518C109.866 67.5857 109.763 67 109.763 67Z" stroke="#5CDEB1" stroke-width="3.0723" stroke-linecap="round" stroke-linejoin="round"/>
<ellipse cx="66.972" cy="106.432" rx="38.2344" ry="4.39476" fill="#EFEFEF"/>
<path d="M20.0254 52C20.0254 52 21.2091 55.5848 23.1212 56.6887C24.6083 57.5473 28.7296 57.0254 28.7296 57.0254C28.7296 57.0254 24.8995 58.634 24.0409 60.1211C22.9369 62.0332 23.7042 65.7296 23.7042 65.7296C23.7042 65.7296 22.5205 62.1447 20.6085 61.0408C19.1213 60.1822 15 60.7042 15 60.7042C15 60.7042 18.6773 59.3603 19.6887 57.6084C20.7002 55.8565 20.0254 52 20.0254 52Z" stroke="#5CDEB1" stroke-width="3.0723" stroke-linecap="round" stroke-linejoin="round"/>
<g clip-path="url(#clip0)">
<circle cx="66.5" cy="72.5" r="30.5" fill="white"/>
<path d="M66.5163 104C83.9296 103.922 98.1014 89.9686 98.4492 72.559C98.7976 55.1494 85.1954 40.6398 67.7996 39.8653V28.2833C67.7996 27.5746 67.225 27 66.5163 27C65.8076 27 65.2329 27.5746 65.2329 28.2833V39.8653C47.8371 40.6398 34.2349 55.1494 34.5833 72.559C34.9317 89.9686 49.1035 103.922 66.5163 104ZM66.5163 55.2333C67.225 55.2333 67.7996 54.6587 67.7996 53.95V53.0232C68.806 53.6041 69.2966 54.7884 68.9958 55.9107C68.695 57.0324 67.678 57.8132 66.5163 57.8132C65.3551 57.8132 64.3381 57.0324 64.0373 55.9107C63.7365 54.7884 64.2272 53.6041 65.2329 53.0232V53.95C65.2329 54.6587 65.8076 55.2333 66.5163 55.2333ZM65.2329 42.432V50.2823C62.7302 50.9284 61.0984 53.3353 61.4243 55.8994C61.7495 58.4636 63.9314 60.3861 66.5163 60.3861C69.1017 60.3861 71.283 58.4636 71.6089 55.8994C71.9347 53.3353 70.303 50.9284 67.7996 50.2823V42.432C83.8363 43.13 96.3751 56.5148 96.026 72.5627C95.677 88.6107 82.568 101.438 66.5163 101.438C50.4652 101.438 37.3562 88.6107 37.0071 72.5627C36.6581 56.5148 49.1969 43.13 65.2329 42.432Z" fill="#0D53B9"/>
<path d="M58.0467 90.9097C58.6132 91.3352 59.4178 91.2205 59.8433 90.6534L75.2433 70.1201C75.6681 69.553 75.5534 68.7484 74.9863 68.3236C74.4193 67.8981 73.6153 68.0128 73.1898 68.5799L57.7898 89.1132C57.3643 89.6803 57.4796 90.4849 58.0467 90.9097Z" fill="#0D53B9"/>
<path d="M60.0996 78.3333C62.9351 78.3333 65.2329 76.0348 65.2329 73.2C65.2329 70.3651 62.9351 68.0667 60.0996 68.0667C57.2647 68.0667 54.9662 70.3651 54.9662 73.2C54.9662 76.0348 57.2647 78.3333 60.0996 78.3333ZM60.0996 70.6333C61.5176 70.6333 62.6662 71.7826 62.6662 73.2C62.6662 74.6174 61.5176 75.7667 60.0996 75.7667C58.6821 75.7667 57.5329 74.6174 57.5329 73.2C57.5329 71.7826 58.6821 70.6333 60.0996 70.6333Z" fill="#0D53B9"/>
<path d="M67.7996 86.0334C67.7996 88.8682 70.0981 91.1667 72.933 91.1667C75.7684 91.1667 78.0663 88.8682 78.0663 86.0334C78.0663 83.1985 75.7684 80.9 72.933 80.9C70.0981 80.9 67.7996 83.1985 67.7996 86.0334ZM75.4996 86.0334C75.4996 87.4508 74.351 88.6 72.933 88.6C71.5155 88.6 70.3663 87.4508 70.3663 86.0334C70.3663 84.6159 71.5155 83.4667 72.933 83.4667C74.351 83.4667 75.4996 84.6159 75.4996 86.0334Z" fill="#0D53B9"/>
</g>
<path d="M114.853 92.5566C114.853 92.5566 115.689 95.0882 117.039 95.8678C118.09 96.4742 121 96.1056 121 96.1056C121 96.1056 118.295 97.2416 117.689 98.2918C116.909 99.6421 117.451 102.253 117.451 102.253C117.451 102.253 116.615 99.7209 115.265 98.9413C114.215 98.335 111.304 98.7036 111.304 98.7036C111.304 98.7036 113.901 97.7546 114.615 96.5173C115.33 95.2801 114.853 92.5566 114.853 92.5566Z" stroke="#5CDEB1" stroke-width="3.0723" stroke-linecap="round" stroke-linejoin="round"/>
<circle cx="91.1645" cy="46.1645" r="14.1645" fill="#5CDEB1"/>
<path d="M91.1435 41.9576C90.7171 41.1961 89.3531 39.673 87.3073 39.673C84.7499 39.673 83.4711 41.5004 83.4711 43.3285C83.4711 45.1558 83.4711 46.0702 85.176 47.8976C86.54 49.3594 89.7226 52.4667 91.1435 53.8375C92.5644 52.4667 95.747 49.3594 97.111 47.8976C98.8159 46.0702 98.8159 45.1558 98.8159 43.3285C98.8159 41.5004 97.5371 39.673 94.9797 39.673C92.9339 39.673 91.5699 41.1961 91.1435 41.9576Z" fill="white"/>
<defs>
<clipPath id="clip0">
<rect width="77" height="77" fill="white" transform="translate(28 27)"/>
</clipPath>
</defs>
</svg>
