<svg width="136" height="136" viewBox="0 0 136 136" fill="none" xmlns="http://www.w3.org/2000/svg">
<rect x="49" y="28" width="43" height="73" rx="4" fill="white"/>
<path d="M48.5 79.5L50.5 86.5L47.5 86L44 83L42 79L45 78L48.5 79.5Z" fill="white"/>
<rect x="80" y="68" width="20" height="15" rx="4" fill="white"/>
<rect x="37" y="39" width="20" height="13" rx="4" fill="white"/>
<path d="M41 57.5C41.3333 55.5 42 51.4 42 51L49 51.5L41 57.5Z" fill="white"/>
<path d="M98.0589 51.5315C98.0589 51.5315 98.2387 52.0759 98.5291 52.2436C98.7549 52.374 99.3808 52.2947 99.3808 52.2947C99.3808 52.2947 98.7992 52.539 98.6688 52.7648C98.5011 53.0552 98.6176 53.6166 98.6176 53.6166C98.6176 53.6166 98.4379 53.0722 98.1475 52.9045C97.9216 52.7741 97.2957 52.8534 97.2957 52.8534C97.2957 52.8534 97.8542 52.6493 98.0078 52.3832C98.1614 52.1172 98.0589 51.5315 98.0589 51.5315Z" stroke="#5CDEB1" stroke-width="3.0723" stroke-linecap="round" stroke-linejoin="round"/>
<ellipse cx="66.972" cy="106.432" rx="38.2344" ry="4.39476" fill="#EFEFEF"/>
<path d="M28.0254 54C28.0254 54 29.2091 57.5848 31.1212 58.6887C32.6083 59.5473 36.7296 59.0254 36.7296 59.0254C36.7296 59.0254 32.8995 60.634 32.0409 62.1211C30.937 64.0332 31.7042 67.7296 31.7042 67.7296C31.7042 67.7296 30.5205 64.1447 28.6085 63.0408C27.1213 62.1822 23 62.7042 23 62.7042C23 62.7042 26.6773 61.3603 27.6888 59.6084C28.7002 57.8565 28.0254 54 28.0254 54Z" stroke="#5CDEB1" stroke-width="3.0723" stroke-linecap="round" stroke-linejoin="round"/>
<path d="M15.7632 73.1521C15.7632 73.1521 15.943 73.6965 16.2334 73.8642C16.4592 73.9946 17.0851 73.9153 17.0851 73.9153C17.0851 73.9153 16.5034 74.1596 16.373 74.3855C16.2054 74.6758 16.3219 75.2372 16.3219 75.2372C16.3219 75.2372 16.1421 74.6928 15.8518 74.5251C15.6259 74.3947 15 74.474 15 74.474C15 74.474 15.5585 74.2699 15.7121 74.0039C15.8657 73.7378 15.7632 73.1521 15.7632 73.1521Z" stroke="#5CDEB1" stroke-width="3.0723" stroke-linecap="round" stroke-linejoin="round"/>
<path d="M114.853 92.5566C114.853 92.5566 115.689 95.0882 117.039 95.8678C118.09 96.4742 121 96.1056 121 96.1056C121 96.1056 118.295 97.2416 117.689 98.2918C116.909 99.6421 117.451 102.253 117.451 102.253C117.451 102.253 116.615 99.7209 115.265 98.9413C114.215 98.335 111.304 98.7036 111.304 98.7036C111.304 98.7036 113.901 97.7546 114.615 96.5173C115.33 95.2801 114.853 92.5566 114.853 92.5566Z" stroke="#5CDEB1" stroke-width="3.0723" stroke-linecap="round" stroke-linejoin="round"/>
<path d="M57.8001 34.6C58.4997 34.6 59.0668 34.0329 59.0668 33.3333C59.0668 32.6338 58.4997 32.0667 57.8001 32.0667C57.1006 32.0667 56.5334 32.6338 56.5334 33.3333C56.5334 34.0329 57.1006 34.6 57.8001 34.6Z" fill="#004FB9"/>
<path d="M62.8667 34.6C63.5663 34.6 64.1334 34.0329 64.1334 33.3333C64.1334 32.6338 63.5663 32.0667 62.8667 32.0667C62.1672 32.0667 61.6001 32.6338 61.6001 33.3333C61.6001 34.0329 62.1672 34.6 62.8667 34.6Z" fill="#004FB9"/>
<path d="M97.1334 66.8667H93.3334V33.3333C93.3334 31.6536 92.6661 30.0427 91.4784 28.855C90.2906 27.6673 88.6797 27 87 27H54C52.3203 27 50.7094 27.6673 49.5217 28.855C48.334 30.0427 47.6667 31.6536 47.6667 33.3333V38.4H41.3334C39.6537 38.4 38.0428 39.0673 36.855 40.255C35.6673 41.4427 35 43.0536 35 44.7333V47.2667C34.9997 48.7267 35.5039 50.142 36.4272 51.273C37.3505 52.404 38.6362 53.1813 40.0667 53.4733V58.6667C40.0679 58.9167 40.1432 59.1608 40.2829 59.3682C40.4227 59.5756 40.6207 59.737 40.852 59.832C41.0024 59.9029 41.1672 59.9376 41.3334 59.9333C41.5001 59.9343 41.6653 59.9023 41.8196 59.8393C41.974 59.7763 42.1143 59.6834 42.2327 59.566L46.932 54.8667C47.1227 55.3181 47.3695 55.7437 47.6667 56.1333V77.6667C46.6741 76.9222 45.4847 76.4858 44.2461 76.4115C43.0076 76.3372 41.7745 76.6283 40.7 77.2487C40.5547 77.3317 40.4272 77.4428 40.325 77.5754C40.2228 77.708 40.1479 77.8596 40.1047 78.0213C40.0254 78.3468 40.0705 78.6902 40.2314 78.984L42.7647 83.3667C43.8578 85.2441 45.6022 86.655 47.6667 87.3313V96.6667C47.6667 98.3464 48.334 99.9573 49.5217 101.145C50.7094 102.333 52.3203 103 54 103H87C88.6797 103 90.2906 102.333 91.4784 101.145C92.6661 99.9573 93.3334 98.3464 93.3334 96.6667V84.6H97.1334C98.1412 84.6 99.1077 84.1996 99.8204 83.487C100.533 82.7744 100.933 81.8078 100.933 80.8V70.6667C100.933 69.6588 100.533 68.6923 99.8204 67.9797C99.1077 67.267 98.1412 66.8667 97.1334 66.8667ZM41.3334 51.0667C40.3255 51.0667 39.359 50.6663 38.6464 49.9537C37.9337 49.241 37.5334 48.2745 37.5334 47.2667V44.7333C37.5334 43.7255 37.9337 42.759 38.6464 42.0463C39.359 41.3337 40.3255 40.9333 41.3334 40.9333H54C54.784 40.9355 55.5482 41.1802 56.1876 41.6337C56.8271 42.0873 57.3107 42.7275 57.572 43.4667H52.7334C51.0537 43.4667 49.4428 44.1339 48.255 45.3217C47.0673 46.5094 46.4 48.1203 46.4 49.8V51.814L42.6 55.614V52.3333C42.6 51.9974 42.4666 51.6752 42.229 51.4377C41.9915 51.2001 41.6693 51.0667 41.3334 51.0667ZM48.9334 52.3333V49.8C48.9334 48.7922 49.3337 47.8256 50.0464 47.113C50.759 46.4004 51.7255 46 52.7334 46H65.4C66.4079 46 67.3744 46.4004 68.087 47.113C68.7997 47.8256 69.2 48.7922 69.2 49.8V52.3333C69.2 53.3412 68.7997 54.3077 68.087 55.0203C67.3744 55.733 66.4079 56.1333 65.4 56.1333C65.0641 56.1333 64.7419 56.2668 64.5044 56.5043C64.2668 56.7419 64.1334 57.0641 64.1334 57.4V60.6807L59.966 56.5007C59.8477 56.3833 59.7073 56.2904 59.553 56.2274C59.3987 56.1643 59.2334 56.1324 59.0667 56.1333H52.7334C51.7255 56.1333 50.759 55.733 50.0464 55.0203C49.3337 54.3077 48.9334 53.3412 48.9334 52.3333ZM62.056 82.0367C62.0128 82.1984 61.9379 82.35 61.8357 82.4826C61.7335 82.6152 61.6061 82.7263 61.4607 82.8093L59.2694 84.076C58.8366 84.3262 58.3588 84.4885 57.8632 84.5537C57.3676 84.6189 56.8641 84.5857 56.3814 84.456C56.1246 84.3799 55.8746 84.2824 55.634 84.1647H55.5454C55.3148 84.0404 55.0982 83.8918 54.8994 83.7213L60.194 80.6687C60.3378 80.5844 60.4969 80.5293 60.662 80.5066C60.8272 80.484 60.9951 80.4941 61.1564 80.5364C61.3176 80.5788 61.4688 80.6526 61.6015 80.7535C61.7341 80.8545 61.8456 80.9806 61.9294 81.1247C62.0845 81.402 62.1297 81.7275 62.056 82.0367ZM63.3227 78.832C62.7268 78.3235 61.9882 78.0117 61.2082 77.9391C60.4282 77.8666 59.6449 78.0369 58.9654 78.4267L52.3914 82.2267C52.2379 82.306 52.1023 82.4159 51.9929 82.5495C51.8835 82.6832 51.8025 82.8378 51.7551 83.0039C51.7076 83.17 51.6946 83.3441 51.7169 83.5154C51.7392 83.6867 51.7963 83.8516 51.8847 84C52.0835 84.3367 52.3125 84.6546 52.5687 84.95C51.378 85.373 50.088 85.4302 48.8646 85.1142C47.6412 84.7981 46.5402 84.1234 45.7034 83.1767L48.9334 81.302L59.9027 74.9687C61.1659 74.2341 62.6441 73.959 64.087 74.1899C65.5298 74.4207 66.8484 75.1434 67.8194 76.2353L63.3227 78.832ZM46.4 79.8453L46.02 80.0607L44.3987 80.998L43.2334 78.9967C43.7911 78.8928 44.365 78.9151 44.9129 79.0619C45.4609 79.2088 45.969 79.4765 46.4 79.8453ZM90.8 96.6667C90.8 97.6745 90.3997 98.641 89.687 99.3537C88.9744 100.066 88.0079 100.467 87 100.467H54C52.9922 100.467 52.0257 100.066 51.313 99.3537C50.6004 98.641 50.2 97.6745 50.2 96.6667V87.8H50.466C52.019 87.8011 53.5444 87.3903 54.8867 86.6093C55.1531 86.7314 55.4283 86.833 55.71 86.9133C56.2465 87.0602 56.8005 87.1327 57.3567 87.1287C58.4647 87.1306 59.5533 86.8377 60.5107 86.28L62.702 85.0133C63.3789 84.6192 63.9174 84.0255 64.2439 83.3135C64.5705 82.6016 64.669 81.8061 64.526 81.036L70.2134 77.7553C70.5031 77.5882 70.715 77.3133 70.8028 76.9906C70.8906 76.6679 70.8472 76.3235 70.682 76.0327C70.1007 75.0221 69.3257 74.1362 68.4015 73.4255C67.4774 72.7148 66.4221 72.1934 65.2962 71.891C64.1702 71.5886 62.9957 71.5113 61.8398 71.6634C60.684 71.8155 59.5694 72.194 58.56 72.7773L50.2 77.6667V58.1347C50.9982 58.4866 51.8611 58.6679 52.7334 58.6667H58.5474L64.5007 64.6327C64.6191 64.7501 64.7594 64.8429 64.9137 64.906C65.0681 64.969 65.2333 65.001 65.4 65C65.5662 65.0043 65.731 64.9696 65.8814 64.8987C66.1127 64.8036 66.3107 64.6423 66.4505 64.4349C66.5902 64.2275 66.6655 63.9834 66.6667 63.7333V58.54C68.0972 58.248 69.3829 57.4707 70.3062 56.3397C71.2295 55.2087 71.7337 53.7934 71.7334 52.3333V49.8C71.7334 48.1203 71.0661 46.5094 69.8784 45.3217C68.6906 44.1339 67.0797 43.4667 65.4 43.4667H60.2067C59.9147 42.0361 59.1374 40.7504 58.0064 39.8271C56.8753 38.9039 55.4601 38.3997 54 38.4H50.2V33.3333C50.2 32.3255 50.6004 31.359 51.313 30.6463C52.0257 29.9337 52.9922 29.5333 54 29.5333H87C88.0079 29.5333 88.9744 29.9337 89.687 30.6463C90.3997 31.359 90.8 32.3255 90.8 33.3333V66.8667H85.7334V65.6C85.7334 65.2641 85.5999 64.9419 85.3624 64.7043C85.1248 64.4668 84.8026 64.3333 84.4667 64.3333C84.1308 64.3333 83.8086 64.4668 83.571 64.7043C83.3335 64.9419 83.2 65.2641 83.2 65.6V66.8667H81.9334C80.9255 66.8667 79.959 67.267 79.2464 67.9797C78.5337 68.6923 78.1334 69.6588 78.1334 70.6667V80.8C78.1334 81.8078 78.5337 82.7744 79.2464 83.487C79.959 84.1996 80.9255 84.6 81.9334 84.6H90.8V96.6667ZM98.4 80.8C98.4 81.1359 98.2666 81.4581 98.029 81.6957C97.7915 81.9332 97.4693 82.0667 97.1334 82.0667H81.9334C81.5974 82.0667 81.2752 81.9332 81.0377 81.6957C80.8001 81.4581 80.6667 81.1359 80.6667 80.8V70.6667C80.6667 70.3307 80.8001 70.0085 81.0377 69.771C81.2752 69.5335 81.5974 69.4 81.9334 69.4H97.1334C97.4693 69.4 97.7915 69.5335 98.029 69.771C98.2666 70.0085 98.4 70.3307 98.4 70.6667V80.8Z" fill="#004FB9"/>
<path d="M89.2001 72C88.4485 72 87.7138 72.2229 87.0889 72.6404C86.464 73.058 85.9769 73.6514 85.6893 74.3458C85.4017 75.0402 85.3264 75.8042 85.4731 76.5413C85.6197 77.2785 85.9816 77.9556 86.5131 78.487C87.0445 79.0185 87.7216 79.3804 88.4587 79.527C89.1958 79.6736 89.9599 79.5984 90.6543 79.3108C91.3486 79.0231 91.9421 78.5361 92.3596 77.9112C92.7772 77.2863 93.0001 76.5516 93.0001 75.8C93.0001 74.7922 92.5997 73.8256 91.8871 73.113C91.1744 72.4004 90.2079 72 89.2001 72ZM89.2001 77.0667C88.9495 77.0667 88.7046 76.9924 88.4963 76.8532C88.288 76.714 88.1257 76.5162 88.0298 76.2847C87.9339 76.0533 87.9089 75.7986 87.9577 75.5529C88.0066 75.3072 88.1272 75.0815 88.3044 74.9043C88.4815 74.7272 88.7072 74.6066 88.9529 74.5577C89.1987 74.5088 89.4533 74.5339 89.6848 74.6298C89.9162 74.7256 90.1141 74.888 90.2533 75.0963C90.3924 75.3046 90.4667 75.5495 90.4667 75.8C90.4667 76.1359 90.3333 76.4581 90.0957 76.6957C89.8582 76.9332 89.536 77.0667 89.2001 77.0667Z" fill="#5CDEB1"/>
<path d="M88.2001 44.7333C88.2001 43.9818 87.9772 43.2471 87.5597 42.6222C87.1421 41.9973 86.5486 41.5102 85.8543 41.2226C85.1599 40.935 84.3959 40.8597 83.6587 41.0064C82.9216 41.153 82.2445 41.5149 81.7131 42.0463C81.1816 42.5778 80.8197 43.2549 80.6731 43.992C80.5265 44.7291 80.6017 45.4932 80.8893 46.1875C81.1769 46.8819 81.664 47.4754 82.2889 47.8929C82.9138 48.3105 83.6485 48.5333 84.4001 48.5333C85.4079 48.5333 86.3744 48.133 87.0871 47.4204C87.7997 46.7077 88.2001 45.7412 88.2001 44.7333ZM83.1334 44.7333C83.1334 44.4828 83.2077 44.2379 83.3469 44.0296C83.4861 43.8213 83.6839 43.659 83.9153 43.5631C84.1468 43.4672 84.4015 43.4421 84.6472 43.491C84.8929 43.5399 85.1186 43.6605 85.2957 43.8377C85.4729 44.0148 85.5935 44.2405 85.6424 44.4862C85.6913 44.7319 85.6662 44.9866 85.5703 45.2181C85.4745 45.4495 85.3121 45.6474 85.1038 45.7865C84.8955 45.9257 84.6506 46 84.4001 46C84.0641 46 83.7419 45.8666 83.5044 45.629C83.2669 45.3915 83.1334 45.0693 83.1334 44.7333Z" fill="#004FB9"/>
<path d="M72.8667 94.1333H68.2667C67.9308 94.1333 67.6086 94.2668 67.371 94.5043C67.1335 94.7418 67 95.064 67 95.4C67 95.7359 67.1335 96.0581 67.371 96.2956C67.6086 96.5332 67.9308 96.6666 68.2667 96.6666H72.8667C73.2026 96.6666 73.5248 96.5332 73.7624 96.2956C73.9999 96.0581 74.1334 95.7359 74.1334 95.4C74.1334 95.064 73.9999 94.7418 73.7624 94.5043C73.5248 94.2668 73.2026 94.1333 72.8667 94.1333Z" fill="#004FB9"/>
<line x1="49" y1="90" x2="92" y2="90" stroke="#004FB9" stroke-width="2"/>
</svg>
