<svg width="136" height="136" viewBox="0 0 136 136" fill="none" xmlns="http://www.w3.org/2000/svg">
<path d="M98.5805 92.9273C92.7993 99.3936 83.2125 100.781 75.8352 96.2199C73.775 94.8784 71.4183 94.0607 68.9699 93.8377C68.4303 93.7986 67.8856 93.7789 67.3357 93.7789C66.7539 93.7789 66.1849 93.8032 65.6121 93.8479C63.2009 94.0789 60.8814 94.8886 58.8504 96.2084C50.4427 101.41 39.41 98.8117 34.208 90.404C32.0903 86.9812 31.1879 82.9447 31.6463 78.9461C32.4877 71.3737 39.8708 64.0187 47.4509 63.2042C48.1094 63.1305 48.7714 63.0926 49.4341 63.0904H85.2373C85.8999 63.0909 86.5619 63.1262 87.2206 63.1965C94.7994 64.011 102.181 71.3661 103.025 78.9384C103.628 84.0239 102.008 89.1224 98.5805 92.9273Z" fill="white"/>
<g clip-path="url(#clip0)">
<path d="M58.0704 77.4313H52.9556V72.3165C52.9556 71.6104 52.3831 71.0378 51.6769 71.0378H46.5622C45.856 71.0378 45.2835 71.6104 45.2835 72.3165V77.4313H40.1687C39.4626 77.4313 38.89 78.0038 38.89 78.71V83.8247C38.89 84.5309 39.4626 85.1034 40.1687 85.1034H45.2835V90.2181C45.2835 90.9243 45.856 91.4968 46.5622 91.4968H51.6769C52.3831 91.4968 52.9556 90.9243 52.9556 90.2181V85.1034H58.0704C58.7765 85.1034 59.349 84.5309 59.349 83.8247V78.71C59.349 78.0038 58.7765 77.4313 58.0704 77.4313ZM56.7917 82.546H51.6769C50.9708 82.546 50.3982 83.1186 50.3982 83.8247V88.9395H47.8409V83.8247C47.8409 83.1186 47.2683 82.546 46.5622 82.546H41.4474V79.9887H46.5622C47.2683 79.9887 47.8409 79.4161 47.8409 78.71V73.5952H50.3982V78.71C50.3982 79.4161 50.9708 79.9887 51.6769 79.9887H56.7917V82.546Z" fill="#004FB9"/>
<path d="M105.254 78.9351C104.273 70.1237 95.9975 61.88 87.1784 60.9402C86.4294 60.8575 85.6764 60.8148 84.9228 60.8123H70.8572V55.6975H68.2998V53.1402C68.2998 50.3154 66.0099 48.0254 63.1851 48.0254H56.7916C55.3792 48.0254 54.2343 46.8805 54.2343 45.468C54.2343 44.0556 55.3792 42.9107 56.7916 42.9107H77.2506C80.0754 42.9107 82.3654 40.6207 82.3654 37.7959C82.3654 34.9711 80.0754 32.6812 77.2506 32.6812H70.8572C69.4447 32.6812 68.2998 31.5363 68.2998 30.1238V25.009H65.7425V30.1238C65.7425 32.9486 68.0324 35.2385 70.8572 35.2385H77.2506C78.6631 35.2385 79.808 36.3834 79.808 37.7959C79.808 39.2084 78.6631 40.3533 77.2506 40.3533H56.7916C53.9669 40.3533 51.6769 42.6433 51.6769 45.468C51.6769 48.2928 53.9669 50.5828 56.7916 50.5828H63.1851C64.5975 50.5828 65.7425 51.7277 65.7425 53.1402V55.6975H63.1851V60.8123H49.1195C48.3651 60.814 47.6111 60.8567 46.8614 60.9402C38.0384 61.8864 29.7679 70.1301 28.7897 78.9415C27.5051 90.1674 35.564 100.309 46.7901 101.594C51.3614 102.117 55.9755 101.084 59.8873 98.6616C61.5715 97.5591 63.4966 96.8788 65.4995 96.6784C66.4889 96.6002 67.4826 96.5967 68.4724 96.6681C70.507 96.8649 72.4631 97.553 74.1728 98.6731C83.7846 104.613 96.392 101.637 102.332 92.0251C104.749 88.114 105.778 83.5028 105.254 78.9351ZM65.7425 58.2549H68.2998V60.8123H65.7425V58.2549ZM98.2659 93.2066C92.4848 99.6729 82.898 101.061 75.5206 96.4992C73.4604 95.1577 71.1037 94.34 68.6553 94.117C68.1157 94.0778 67.571 94.0582 67.0211 94.0582C66.4393 94.0582 65.8703 94.0825 65.2975 94.1272C62.8863 94.3582 60.5668 95.1679 58.5358 96.4877C50.1281 101.69 39.0954 99.0909 33.8934 90.6832C31.7757 87.2605 30.8733 83.224 31.3317 79.2254C32.1731 71.653 39.5562 64.298 47.1363 63.4835C47.7948 63.4098 48.4568 63.3719 49.1195 63.3697H84.9228C85.5853 63.3701 86.2473 63.4055 86.906 63.4758C94.4848 64.2903 101.867 71.6453 102.711 79.2177C103.313 84.3032 101.694 89.4017 98.2659 93.2066Z" fill="#004FB9"/>
<path d="M84.9228 68.4805C82.098 68.4805 79.808 70.7705 79.808 73.5953C79.808 76.4201 82.098 78.71 84.9228 78.71C87.7476 78.71 90.0375 76.4201 90.0375 73.5953C90.0375 70.7705 87.7476 68.4805 84.9228 68.4805ZM84.9228 76.1527C83.5103 76.1527 82.3654 75.0078 82.3654 73.5953C82.3654 72.1828 83.5103 71.0379 84.9228 71.0379C86.3353 71.0379 87.4802 72.1828 87.4802 73.5953C87.4802 75.0078 86.3351 76.1527 84.9228 76.1527Z" fill="#004FB9"/>
<path d="M84.9228 83.8247C82.098 83.8247 79.808 86.1147 79.808 88.9395C79.808 91.7642 82.098 94.0542 84.9228 94.0542C87.7476 94.0542 90.0375 91.7642 90.0375 88.9395C90.0375 86.1147 87.7476 83.8247 84.9228 83.8247ZM84.9228 91.4968C83.5103 91.4968 82.3654 90.3519 82.3654 88.9395C82.3654 87.527 83.5103 86.3821 84.9228 86.3821C86.3353 86.3821 87.4802 87.527 87.4802 88.9395C87.4802 90.3519 86.3351 91.4968 84.9228 91.4968Z" fill="#004FB9"/>
<path d="M75.972 76.1526C73.1472 76.1526 70.8572 78.4426 70.8572 81.2673C70.8572 84.0921 73.1472 86.3821 75.972 86.3821C78.7968 86.3821 81.0867 84.0921 81.0867 81.2673C81.0867 78.4426 78.7968 76.1526 75.972 76.1526ZM75.972 83.8247C74.5595 83.8247 73.4146 82.6798 73.4146 81.2673C73.4146 79.8549 74.5595 78.71 75.972 78.71C77.3845 78.71 78.5294 79.8549 78.5294 81.2673C78.5294 82.6798 77.3843 83.8247 75.972 83.8247Z" fill="#004FB9"/>
<path d="M93.8736 76.1526C91.0488 76.1526 88.7589 78.4426 88.7589 81.2673C88.7589 84.0921 91.0488 86.3821 93.8736 86.3821C96.6984 86.3821 98.9884 84.0921 98.9884 81.2673C98.9884 78.4426 96.6984 76.1526 93.8736 76.1526ZM93.8736 83.8247C92.4611 83.8247 91.3162 82.6798 91.3162 81.2673C91.3162 79.8549 92.4611 78.71 93.8736 78.71C95.2861 78.71 96.431 79.8549 96.431 81.2673C96.431 82.6798 95.2859 83.8247 93.8736 83.8247Z" fill="#004FB9"/>
</g>
<path d="M98.0589 51.5315C98.0589 51.5315 98.2387 52.0759 98.5291 52.2436C98.7549 52.374 99.3808 52.2947 99.3808 52.2947C99.3808 52.2947 98.7992 52.539 98.6688 52.7648C98.5011 53.0552 98.6176 53.6166 98.6176 53.6166C98.6176 53.6166 98.4379 53.0722 98.1475 52.9045C97.9216 52.7741 97.2957 52.8534 97.2957 52.8534C97.2957 52.8534 97.8542 52.6493 98.0078 52.3832C98.1614 52.1172 98.0589 51.5315 98.0589 51.5315Z" stroke="#5CDEB1" stroke-width="3.0723" stroke-linecap="round" stroke-linejoin="round"/>
<ellipse cx="66.972" cy="106.432" rx="38.2344" ry="4.39476" fill="#EFEFEF"/>
<path d="M29.3684 43.1907C29.3684 43.1907 30.5521 46.7755 32.4641 47.8794C33.9513 48.738 38.0726 48.216 38.0726 48.216C38.0726 48.216 34.2425 49.8246 33.3838 51.3118C32.2799 53.2238 33.0472 56.9202 33.0472 56.9202C33.0472 56.9202 31.8635 53.3354 29.9514 52.2315C28.4643 51.3729 24.343 51.8949 24.343 51.8949C24.343 51.8949 28.0203 50.551 29.0317 48.7991C30.0432 47.0472 29.3684 43.1907 29.3684 43.1907Z" stroke="#5CDEB1" stroke-width="3.0723" stroke-linecap="round" stroke-linejoin="round"/>
<circle cx="103.908" cy="61.4437" r="14.1645" fill="#5CDEB1"/>
<path d="M103.887 57.2368C103.461 56.4753 102.097 54.9523 100.051 54.9523C97.4935 54.9523 96.2146 56.7796 96.2146 58.6077C96.2146 60.435 96.2146 61.3494 97.9195 63.1768C99.2835 64.6387 102.466 67.7459 103.887 69.1168C105.308 67.7459 108.491 64.6387 109.855 63.1768C111.56 61.3494 111.56 60.435 111.56 58.6077C111.56 56.7796 110.281 54.9523 107.723 54.9523C105.677 54.9523 104.313 56.4753 103.887 57.2368Z" fill="white"/>
<path d="M15.7632 73.1521C15.7632 73.1521 15.943 73.6965 16.2334 73.8642C16.4592 73.9946 17.0851 73.9153 17.0851 73.9153C17.0851 73.9153 16.5034 74.1596 16.373 74.3855C16.2054 74.6758 16.3219 75.2372 16.3219 75.2372C16.3219 75.2372 16.1421 74.6928 15.8518 74.5251C15.6259 74.3947 15 74.474 15 74.474C15 74.474 15.5585 74.2699 15.7121 74.0039C15.8657 73.7378 15.7632 73.1521 15.7632 73.1521Z" stroke="#5CDEB1" stroke-width="3.0723" stroke-linecap="round" stroke-linejoin="round"/>
<path d="M114.853 92.5566C114.853 92.5566 115.689 95.0882 117.039 95.8678C118.09 96.4742 121 96.1056 121 96.1056C121 96.1056 118.295 97.2416 117.689 98.2918C116.909 99.6421 117.451 102.253 117.451 102.253C117.451 102.253 116.615 99.7209 115.265 98.9413C114.215 98.335 111.304 98.7036 111.304 98.7036C111.304 98.7036 113.901 97.7546 114.615 96.5173C115.33 95.2801 114.853 92.5566 114.853 92.5566Z" stroke="#5CDEB1" stroke-width="3.0723" stroke-linecap="round" stroke-linejoin="round"/>
<defs>
<clipPath id="clip0">
<rect width="76.7324" height="76.7324" fill="white" transform="translate(28.6551 25)"/>
</clipPath>
</defs>
</svg>
