<svg width="136" height="136" viewBox="0 0 136 136" fill="none" xmlns="http://www.w3.org/2000/svg">
<path d="M98.0589 51.5314C98.0589 51.5314 98.2387 52.0759 98.529 52.2435C98.7549 52.3739 99.3808 52.2946 99.3808 52.2946C99.3808 52.2946 98.7991 52.5389 98.6687 52.7648C98.5011 53.0552 98.6176 53.6165 98.6176 53.6165C98.6176 53.6165 98.4378 53.0721 98.1474 52.9045C97.9216 52.7741 97.2957 52.8533 97.2957 52.8533C97.2957 52.8533 97.8542 52.6493 98.0078 52.3832C98.1614 52.1171 98.0589 51.5314 98.0589 51.5314Z" stroke="#5CDEB1" stroke-width="3.0723" stroke-linecap="round" stroke-linejoin="round"/>
<ellipse cx="66.972" cy="106.432" rx="38.2344" ry="4.39476" fill="#EFEFEF"/>
<path d="M20.0254 52C20.0254 52 21.2091 55.5848 23.1212 56.6887C24.6083 57.5473 28.7296 57.0254 28.7296 57.0254C28.7296 57.0254 24.8995 58.634 24.0409 60.1211C22.9369 62.0332 23.7042 65.7296 23.7042 65.7296C23.7042 65.7296 22.5205 62.1447 20.6085 61.0408C19.1213 60.1822 15 60.7042 15 60.7042C15 60.7042 18.6773 59.3603 19.6888 57.6084C20.7002 55.8565 20.0254 52 20.0254 52Z" stroke="#5CDEB1" stroke-width="3.0723" stroke-linecap="round" stroke-linejoin="round"/>
<path d="M114.853 92.5566C114.853 92.5566 115.689 95.0882 117.039 95.8678C118.09 96.4742 121 96.1056 121 96.1056C121 96.1056 118.295 97.2416 117.689 98.2918C116.909 99.6421 117.451 102.253 117.451 102.253C117.451 102.253 116.615 99.7209 115.265 98.9413C114.215 98.335 111.304 98.7036 111.304 98.7036C111.304 98.7036 113.901 97.7546 114.615 96.5173C115.33 95.2801 114.853 92.5566 114.853 92.5566Z" stroke="#5CDEB1" stroke-width="3.0723" stroke-linecap="round" stroke-linejoin="round"/>
<g clip-path="url(#clip0)">
<rect x="49" y="29" width="41" height="73" rx="4" fill="white"/>
<rect x="32" y="38" width="22" height="16" rx="4" fill="white"/>
<path d="M43 58.5L39 53L43.5 51.5L43 58.5Z" fill="white"/>
<rect x="84" y="67" width="22" height="16" rx="4" fill="white"/>
<path d="M96 86.5L96.5 82L100 81V83L96 86.5Z" fill="white"/>
<path d="M46.9658 79.8619C46.9658 80.4848 47.4712 80.9898 48.0946 80.9898C48.718 80.9898 49.2234 80.4848 49.2234 79.8619V55.4073H49.438C52.9653 55.4073 55.8349 52.5398 55.8349 49.0149V42.5472C55.8349 39.0224 52.9653 36.1549 49.438 36.1549H49.2234V32.6396C49.2234 30.7738 50.7427 29.2559 52.6101 29.2559H56.8774V32.6396C56.8774 34.0908 58.059 35.2715 59.5115 35.2715H79.3796C80.8319 35.2715 82.0137 34.0908 82.0137 32.6396V29.2559H86.3257C88.1931 29.2559 89.7123 30.7738 89.7123 32.6396V36.6053C89.7123 37.2282 90.2178 37.7332 90.8412 37.7332C91.4645 37.7332 91.97 37.2282 91.97 36.6053V32.6396C91.97 29.5299 89.438 27 86.3257 27H52.6101C49.4977 27 46.9658 29.5299 46.9658 32.6396V36.1549H37.3969C33.8696 36.1549 31 39.0224 31 42.5472V49.0149C31 52.5398 33.8696 55.4073 37.3969 55.4073H38.7793L42.083 59.8515C42.8151 60.8361 44.3894 60.3201 44.3894 59.0891V55.4073H46.9659V79.8619H46.9658ZM79.7559 29.2559V32.6396C79.7559 32.8469 79.5871 33.0156 79.3796 33.0156H59.5115C59.304 33.0156 59.1352 32.8469 59.1352 32.6396V29.2559H79.7559ZM43.2604 53.1514C42.6369 53.1514 42.1316 53.6564 42.1316 54.2794V56.1335L40.2534 53.6068C40.0404 53.3203 39.7043 53.1514 39.3471 53.1514H37.3969C35.1145 53.1514 33.2577 51.2958 33.2577 49.0149V42.5472C33.2577 40.2664 35.1145 38.4107 37.3969 38.4107H49.4382C51.7205 38.4107 53.5774 40.2664 53.5774 42.5472V49.0149C53.5774 51.2958 51.7205 53.1514 49.4382 53.1514H43.2604Z" fill="#004FB9"/>
<path d="M76.452 96.7812H62.4838C61.8602 96.7812 61.3549 97.2863 61.3549 97.9092C61.3549 98.5321 61.8604 99.0371 62.4838 99.0371H76.452C77.0756 99.0371 77.5809 98.5321 77.5809 97.9092C77.5809 97.2863 77.0754 96.7812 76.452 96.7812Z" fill="#004FB9"/>
<path d="M101.603 65.3496H91.9702V41.4178C91.9702 40.7949 91.4647 40.2899 90.8413 40.2899C90.218 40.2899 89.7125 40.7949 89.7125 41.4178V65.3496H89.562C86.0347 65.3496 83.1651 68.2171 83.1651 71.742V78.2097C83.1651 81.7345 86.0347 84.602 89.562 84.602H89.7125V92.0439H84.6105V87.7307C84.6105 82.3735 80.2484 78.015 74.8867 78.015H72.8578V75.876C76.3327 74.7747 79.0796 72.0238 80.1731 68.5478C80.3719 68.5919 80.5743 68.6144 80.778 68.6144C82.8791 68.6144 84.449 65.9951 84.449 63.653C84.449 61.8222 83.4981 60.5921 82.302 60.0378C83.3472 55.7835 82.3968 50.7593 78.9837 48.1236C78.4904 47.7426 77.7813 47.8334 77.4002 48.3263C77.0189 48.8191 77.1098 49.5274 77.6031 49.9085C79.016 50.9996 79.844 52.5129 80.288 54.815C80.7133 57.0186 80.2381 59.0932 79.9798 59.9769C79.3568 60.3332 78.9495 60.9752 78.7092 61.7004C77.2098 59.1842 74.485 58.1602 71.8384 57.1656C69.6003 56.3247 67.4864 55.5303 66.1131 53.8989C65.0429 52.6273 63.9037 52.749 63.3197 52.935C61.5988 53.4827 60.473 55.8923 60.3527 57.3476C60.3163 57.7591 60.1725 59.6065 59.9904 61.1262C59.7464 60.6434 59.4073 60.2341 58.9542 59.9757C57.9432 56.5502 58.531 52.216 61.1676 50.0406C62.9054 48.6069 65.698 47.8799 69.468 47.8799C71.0352 47.8799 72.4456 48.005 73.6598 48.2515C74.2712 48.3753 74.8667 47.9813 74.9909 47.371C75.1151 46.7604 74.7205 46.165 74.1096 46.0409C72.7477 45.7644 71.186 45.6241 69.468 45.6241C65.0988 45.6241 61.9136 46.4998 59.73 48.301C57.465 50.1698 56.7625 52.67 56.4312 54.3879C55.9919 56.6641 56.324 58.776 56.6341 60.038C55.4382 60.5923 54.4871 61.8223 54.4871 63.6532C54.4871 65.9952 56.0571 68.6146 58.1582 68.6146C58.3618 68.6146 58.5642 68.5919 58.763 68.5478C59.8568 72.0235 62.6048 74.7744 66.0843 75.8759V78.015H64.0494C58.6877 78.015 54.3256 82.3735 54.3256 87.7307V92.0439H49.2236V84.7862C49.2236 84.1633 48.7181 83.6583 48.0948 83.6583C47.4714 83.6583 46.9659 84.1633 46.9659 84.7862V98.3603C46.9659 101.47 49.4979 104 52.6102 104H86.3257C89.4381 104 91.97 101.47 91.97 98.3603V84.6022H94.6106V88.2839C94.6106 89.5151 96.1853 90.0308 96.9171 89.0461L100.221 84.602H101.603C105.13 84.602 108 81.7344 108 78.2097V71.742C108 68.2171 105.13 65.3496 101.603 65.3496ZM68.3423 80.2709H70.6001V85.9727C70.6001 86.5947 70.0938 87.1006 69.4713 87.1006C68.8488 87.1006 68.3425 86.5947 68.3425 85.9727V80.2709H68.3423ZM80.7777 66.3587C80.7261 66.3587 80.676 66.351 80.6279 66.338C80.7178 65.4547 80.6745 64.9472 80.6858 63.5464C80.6861 63.5369 80.6864 63.5276 80.6864 63.5181C80.6922 62.8829 80.8834 62.1927 81.0521 61.9842C81.617 62.0966 82.1909 62.579 82.1909 63.6532C82.191 65.0787 81.2311 66.3587 80.7777 66.3587ZM58.1582 66.3587C57.7049 66.3587 56.7449 65.0787 56.7449 63.6532C56.7449 62.579 57.3188 62.0966 57.8837 61.9842C58.0524 62.1926 58.2436 62.8826 58.2494 63.5147C58.2494 63.5261 58.2497 63.5374 58.25 63.5487C58.2613 64.9374 58.2179 65.4531 58.3079 66.3378C58.2598 66.3511 58.2097 66.3587 58.1582 66.3587ZM60.5077 65.1947V64.7283C60.9644 64.631 61.3786 64.3806 61.658 63.9258C62.2259 62.9996 62.4342 59.2101 62.6025 57.5339C62.6772 56.6303 63.4636 55.2566 64.0049 55.0842C64.1151 55.0498 64.3076 55.2588 64.3849 55.3506C66.1385 57.4339 68.632 58.3709 71.0433 59.277C73.8484 60.3311 76.2711 61.2414 77.18 63.724C77.3734 64.2522 77.8184 64.6482 78.428 64.7626V65.1945C78.428 70.1278 74.4112 74.1413 69.4618 74.1413C64.5252 74.1414 60.5077 70.1286 60.5077 65.1947ZM70.5998 76.3412V78.015H68.342V76.3409C69.0911 76.4159 69.8503 76.4162 70.5998 76.3412ZM56.5833 87.7307C56.5833 83.6174 59.9325 80.2709 64.0493 80.2709H66.0845V85.9727C66.0845 87.8386 67.6037 89.3565 69.4711 89.3565C71.3385 89.3565 72.8578 87.8386 72.8578 85.9727V80.2709H74.8864C79.0032 80.2709 82.3524 83.6174 82.3524 87.7307V92.0169H56.5833V87.7307ZM86.3257 101.744H52.6101C50.7427 101.744 49.2235 100.226 49.2235 98.3603V94.2998H89.7122V98.3603C89.7124 100.226 88.1931 101.744 86.3257 101.744ZM105.742 78.2097C105.742 80.4906 103.885 82.3461 101.603 82.3461H99.6529C99.2957 82.3461 98.9596 82.515 98.7466 82.8015L96.8684 85.3282V83.4741C96.8684 82.8512 96.3629 82.3461 95.7396 82.3461H89.5618C87.2795 82.3461 85.4226 80.4905 85.4226 78.2097V71.742C85.4226 69.4611 87.2795 67.6055 89.5618 67.6055H101.603C103.885 67.6055 105.742 69.4611 105.742 71.742V78.2097H105.742Z" fill="#004FB9"/>
<path d="M47.162 44.2022L42.8476 41.6069C41.6293 40.874 40.0755 41.7582 40.0755 43.186V48.3763C40.0755 49.8106 41.6371 50.6834 42.8478 49.9552L47.162 47.3601C48.3491 46.6462 48.3507 44.9171 47.162 44.2022ZM42.3333 47.6317V43.9306L45.4097 45.7811L42.3333 47.6317Z" fill="#5CDEB1"/>
<path d="M100.474 70.9893H91.1421C90.5186 70.9893 90.0133 71.4943 90.0133 72.1172C90.0133 72.7401 90.5188 73.2451 91.1421 73.2451H100.474C101.098 73.2451 101.603 72.7401 101.603 72.1172C101.603 71.4943 101.098 70.9893 100.474 70.9893Z" fill="#5CDEB1"/>
<path d="M100.474 75.501H91.1421C90.5186 75.501 90.0133 76.006 90.0133 76.6289C90.0133 77.2518 90.5188 77.7568 91.1421 77.7568H100.474C101.098 77.7568 101.603 77.2518 101.603 76.6289C101.603 76.006 101.098 75.501 100.474 75.501Z" fill="#5CDEB1"/>
</g>
<defs>
<clipPath id="clip0">
<rect width="77" height="77" fill="white" transform="translate(31 27)"/>
</clipPath>
</defs>
</svg>
