<svg width="10" height="6" viewBox="0 0 10 6" fill="none" xmlns="http://www.w3.org/2000/svg">
<path d="M1 1.3211C1.00798 1.20881 1.03989 1.12244 1.13562 1.07061C1.23135 1.01879 1.3191 0.966962 1.42281 1.06197C1.57439 1.20017 1.73394 1.32973 1.89349 1.46793C2.08495 1.63204 2.26844 1.80479 2.4599 1.9689C2.72316 2.21075 2.98642 2.4526 3.24968 2.69444C3.48103 2.90174 3.71238 3.10904 3.94373 3.32498C4.15115 3.515 4.35059 3.70502 4.55801 3.89504C4.69363 4.01597 4.82925 4.14553 4.96487 4.25782C4.9888 4.27509 5.04464 4.26645 5.06858 4.24918C5.29993 4.03324 5.53128 3.81731 5.76263 3.60137C6.06578 3.32498 6.36892 3.05722 6.67207 2.78082C6.94331 2.53897 7.20657 2.28849 7.46983 2.04664C7.765 1.77888 8.0522 1.51112 8.34737 1.24336C8.42714 1.16562 8.5149 1.09652 8.61063 1.03606C8.73029 0.949687 8.92176 1.02742 8.96962 1.17426C9.05737 1.43338 8.94569 1.51112 8.75423 1.6925C8.46703 1.96026 8.17984 2.23666 7.88467 2.50442C7.73309 2.64262 7.57354 2.77218 7.42197 2.91038C7.2305 3.08313 7.03904 3.27315 6.8396 3.4459C6.64814 3.61865 6.45668 3.78276 6.26522 3.95551C6.00195 4.19735 5.74667 4.4392 5.49139 4.68105C5.38768 4.77606 5.28397 4.87107 5.17228 4.95745C5.0606 5.04382 4.85318 4.992 4.71756 4.86244C4.54205 4.69832 4.36655 4.53421 4.19104 4.3701C3.82407 4.03324 3.4571 3.68775 3.09013 3.35089C2.84283 3.12632 2.59552 2.91902 2.34821 2.69444C2.22057 2.57352 2.10091 2.44396 1.96529 2.32304C1.81371 2.18484 1.65416 2.05528 1.50259 1.91708C1.35101 1.77888 1.19944 1.64068 1.05584 1.49384C1.01596 1.46793 1.01596 1.3902 1 1.3211Z" fill="#00B9EB" stroke="#00B9EB" stroke-width="1.5"/>
</svg>
