<svg width="98" height="114" viewBox="0 0 98 114" fill="none" xmlns="http://www.w3.org/2000/svg">
<ellipse cx="50.4999" cy="109" rx="43.5" ry="5" fill="#F3F3F3"/>
<path d="M22.3358 19C22.3358 15.4102 25.246 12.5 28.8358 12.5H71.9249C75.5147 12.5 78.4249 15.4101 78.4249 19V93.4818C78.4249 101.49 71.933 107.982 63.9249 107.982H36.8358C28.8277 107.982 22.3358 101.49 22.3358 93.4818V19Z" fill="white" stroke="#004FB9" stroke-width="3"/>
<path d="M67.6928 27.5431C66.9546 24.6329 74.4057 11 77.4081 11H79.1525C79.5791 11 79.9249 11.3458 79.9249 11.7724V94.0926C79.9249 102.592 73.0349 109.482 64.5357 109.482C64.2229 109.482 62.7482 105.647 62.9265 105.389C66.6936 99.958 71.1262 87.3317 70.8358 58C70.6993 44.2127 69.4447 34.4504 67.6928 27.5431Z" fill="#F3F3F3"/>
<path d="M22.3358 19C22.3358 15.4102 25.246 12.5 28.8358 12.5H71.9249C75.5147 12.5 78.4249 15.4101 78.4249 19V93.4818C78.4249 101.49 71.933 107.982 63.9249 107.982H36.8358C28.8277 107.982 22.3358 101.49 22.3358 93.4818V19Z" stroke="#004FB9" stroke-width="3"/>
<path d="M7.71753 37.0492C7.71753 37.0492 9.06425 41.1277 11.2396 42.3836C12.9316 43.3605 17.6205 42.7666 17.6205 42.7666C17.6205 42.7666 13.2629 44.5967 12.286 46.2887C11.03 48.4641 11.903 52.6695 11.903 52.6695C11.903 52.6695 10.5563 48.591 8.38089 47.3351C6.68893 46.3582 2.00004 46.9521 2.00004 46.9521C2.00004 46.9521 6.18375 45.4231 7.33452 43.43C8.48529 41.4368 7.71753 37.0492 7.71753 37.0492Z" stroke="#5CDEB1" stroke-width="3" stroke-linecap="round" stroke-linejoin="round"/>
<path d="M89.0378 68.0491C89.0378 68.0491 89.9889 70.9294 91.5252 71.8164C92.72 72.5062 96.0314 72.0868 96.0314 72.0868C96.0314 72.0868 92.954 73.3793 92.2641 74.5742C91.3772 76.1104 91.9936 79.0803 91.9936 79.0803C91.9936 79.0803 91.0426 76.2001 89.5063 75.3131C88.3114 74.6232 85.0001 75.0426 85.0001 75.0426C85.0001 75.0426 87.9547 73.9629 88.7674 72.5553C89.58 71.1477 89.0378 68.0491 89.0378 68.0491Z" stroke="#5CDEB1" stroke-width="3" stroke-linecap="round" stroke-linejoin="round"/>
<path d="M85.8679 46.5387C85.8679 46.5387 86.0724 47.1581 86.4028 47.3488C86.6598 47.4972 87.3719 47.407 87.3719 47.407C87.3719 47.407 86.7101 47.6849 86.5617 47.9419C86.371 48.2723 86.5036 48.9109 86.5036 48.9109C86.5036 48.9109 86.299 48.2915 85.9687 48.1008C85.7117 47.9524 84.9996 48.0426 84.9996 48.0426C84.9996 48.0426 85.635 47.8104 85.8098 47.5077C85.9845 47.205 85.8679 46.5387 85.8679 46.5387Z" stroke="#5CDEB1" stroke-width="3" stroke-linecap="round" stroke-linejoin="round"/>
<path d="M10.8699 72.0491C10.8699 72.0491 11.0744 72.6686 11.4048 72.8593C11.6617 73.0076 12.3738 72.9175 12.3738 72.9175C12.3738 72.9175 11.712 73.1954 11.5637 73.4524C11.3729 73.7827 11.5055 74.4214 11.5055 74.4214C11.5055 74.4214 11.301 73.802 10.9706 73.6113C10.7137 73.4629 10.0016 73.5531 10.0016 73.5531C10.0016 73.5531 10.6369 73.3209 10.8117 73.0182C10.9865 72.7155 10.8699 72.0491 10.8699 72.0491Z" stroke="#5CDEB1" stroke-width="3" stroke-linecap="round" stroke-linejoin="round"/>
<path d="M22.4705 87.2563H78.8357" stroke="#004FB9" stroke-width="3" stroke-miterlimit="10"/>
<circle cx="50.5714" cy="96.915" r="4.10341" fill="#004FB9"/>
</svg>
